<?xml version="1.0" encoding="UTF-8" standalone="no"?>
<!-- Created with Inkscape (http://www.inkscape.org/) -->

<svg
   xmlns:dc="http://purl.org/dc/elements/1.1/"
   xmlns:cc="http://creativecommons.org/ns#"
   xmlns:rdf="http://www.w3.org/1999/02/22-rdf-syntax-ns#"
   xmlns:svg="http://www.w3.org/2000/svg"
   xmlns="http://www.w3.org/2000/svg"
   xmlns:sodipodi="http://sodipodi.sourceforge.net/DTD/sodipodi-0.dtd"
   xmlns:inkscape="http://www.inkscape.org/namespaces/inkscape"
   width="210mm"
   height="297mm"
   viewBox="0 0 210 297"
   version="1.1"
   id="svg8"
   inkscape:version="0.92.3 (2405546, 2018-03-11)"
   sodipodi:docname="sbxg.svg">
  <defs
     id="defs2" />
  <sodipodi:namedview
     id="base"
     pagecolor="#ffffff"
     bordercolor="#666666"
     borderopacity="1.0"
     inkscape:pageopacity="0.0"
     inkscape:pageshadow="2"
     inkscape:zoom="2.8284271"
     inkscape:cx="453.49967"
     inkscape:cy="714.46818"
     inkscape:document-units="mm"
     inkscape:current-layer="layer1"
     showgrid="false"
     inkscape:window-width="1920"
     inkscape:window-height="1016"
     inkscape:window-x="0"
     inkscape:window-y="27"
     inkscape:window-maximized="1" />
  <metadata
     id="metadata5">
    <rdf:RDF>
      <cc:Work
         rdf:about="">
        <dc:format>image/svg+xml</dc:format>
        <dc:type
           rdf:resource="http://purl.org/dc/dcmitype/StillImage" />
        <dc:title></dc:title>
      </cc:Work>
    </rdf:RDF>
  </metadata>
  <g
     inkscape:label="Layer 1"
     inkscape:groupmode="layer"
     id="layer1">
    <path
       style="display:inline;fill:#e68000;fill-opacity:1;stroke-width:1.00000012"
       d="m 550.57227,424.37695 v 10.83399 c 0,5.95835 0.29943,11.13338 0.66601,11.5 0.36662,0.36661 4.54141,0.66601 9.27734,0.66601 6.17503,0 9.2402,-0.44032 10.83399,-1.55664 2.5858,-1.81115 2.95193,-6.08465 0.77148,-9.00195 -0.96642,-1.2932 -1.25795,-3.19087 -0.87304,-5.68555 0.91801,-5.94973 -0.42982,-6.75586 -11.29883,-6.75586 z m 12.33398,3.13086 c 5.10433,-0.0172 6.20502,0.99184 4.72266,3.76172 -0.9145,1.70873 -2.06611,2.10742 -6.0918,2.10742 -4.29812,0 -4.96484,0.26871 -4.96484,2 0,1.77661 0.6667,2 5.96484,2 4.96169,0 6.14536,0.33863 7.04492,2.01953 0.59482,1.11137 0.80954,2.46135 0.47656,3 v 0.002 c -0.97515,1.57772 -15.45054,1.23815 -16.07031,-0.37696 -0.28573,-0.74543 -0.38467,-4.23292 -0.21875,-7.75 l 0.30274,-6.39453 6.39843,-0.30273 c 0.89677,-0.0422 1.70636,-0.064 2.43555,-0.0664 z"
       transform="scale(0.26458333)"
       id="path4726"
       inkscape:connector-curvature="0" />
    <path
       style="fill:#083b66;fill-opacity:1;stroke-width:0.26458335"
       d="m 142.59148,125.52114 c -1.39631,-0.58002 -1.84886,-2.56403 -0.869,-3.80972 l 0.54837,-0.69714 h 9.59708 c 10.99403,0 10.47284,-0.11421 10.47284,2.29493 0,2.40004 0.31238,2.32643 -10.1477,2.39137 -4.96902,0.0309 -9.28974,-0.0499 -9.60159,-0.17944 z"
       id="path4732"
       inkscape:connector-curvature="0" />
    <path
       style="fill:#083b66;fill-opacity:1;stroke-width:0.26458335"
       d="m 123.56729,124.86276 c -0.5674,-0.5674 -0.64943,-0.88639 -0.64943,-2.52556 0,-1.63917 0.082,-1.95817 0.64943,-2.52557 0.55723,-0.55723 0.89531,-0.64943 2.38125,-0.64943 h 1.73182 V 106.54713 93.932061 l -0.99219,-0.910151 -0.99219,-0.910152 -3.07289,0.999616 c -3.04841,0.991649 -3.80622,1.038998 -4.10646,0.256579 -0.26954,-0.702428 0.31023,-1.045833 3.54206,-2.098002 l 3.1432,-1.023309 0.45642,-1.285099 c 0.2718,-0.765267 0.77308,-1.51921 1.23924,-1.863855 0.62923,-0.465213 0.78281,-0.776623 0.78281,-1.587332 0,-1.241023 0.74005,-2.06691 1.85208,-2.06691 1.16445,0 1.85209,0.819758 1.85209,2.207951 0,0.825189 0.15399,1.288978 0.54567,1.643443 0.53673,0.485737 0.68231,0.448494 8.88947,-2.274098 7.39701,-2.453837 8.38479,-2.846846 8.70496,-3.463463 0.40382,-0.777708 0.87292,-1.02425 1.94886,-1.02425 1.6447,0 2.29992,2.209306 0.98951,3.336475 -0.64843,0.557757 -0.70556,0.768583 -0.70556,2.603959 0,1.182933 0.11018,1.997066 0.27026,1.997066 0.14864,0 0.40365,0.292779 0.5667,0.65062 0.23685,0.51984 0.20912,0.783886 -0.13797,1.313608 -0.60035,0.916247 -0.54358,1.446943 0.18437,1.72371 0.34032,0.129391 0.93563,0.611829 1.32292,1.072085 0.84288,1.001712 0.95848,2.797567 0.25655,3.985827 -0.40151,0.679704 -0.40623,0.806474 -0.0459,1.231444 4.82705,5.692417 5.03274,5.897707 5.90928,5.897707 0.47455,0 1.17652,0.24676 1.55994,0.54837 0.58462,0.45986 0.69714,0.75879 0.69714,1.85208 0,0.95094 -0.14319,1.44691 -0.52916,1.83288 -0.50932,0.50932 -0.88195,0.52917 -9.9339,0.52917 h -9.40474 l -0.64943,-0.64943 c -0.646,-0.64601 -0.86041,-1.93249 -0.48508,-2.9106 0.20283,-0.52855 1.45184,-1.19775 2.26991,-1.21618 0.43885,-0.01 1.26038,-0.78425 2.94731,-2.77812 2.14718,-2.537847 3.09541,-3.287447 3.07858,-2.433687 -0.004,0.1819 -0.84051,1.223687 -1.85981,2.315097 -2.98656,3.1978 -3.3817,2.91042 4.00171,2.91042 h 6.38735 l -1.94626,-2.14349 c -1.07045,-1.17892 -2.20946,-2.471577 -2.53114,-2.872577 -0.52723,-0.65723 -0.71199,-0.71688 -1.87442,-0.60519 -1.57564,0.1514 -2.76797,-0.39346 -3.50454,-1.601485 -0.59637,-0.978083 -0.6656,-1.850765 -0.17885,-2.254727 0.46084,-0.382466 0.90375,-0.05976 1.12436,0.819199 0.21845,0.870372 1.29745,1.785707 2.07744,1.762332 0.54883,-0.01645 0.54823,-0.02136 -0.0313,-0.254427 -0.36619,-0.147278 -0.53449,-0.384667 -0.44256,-0.62423 0.23957,-0.624298 0.93872,-0.740112 1.48476,-0.245951 0.43684,0.395336 0.5409,0.405379 0.75144,0.07252 0.73109,-1.155833 -0.0564,-2.784964 -1.47492,-3.051071 -0.85512,-0.160422 -0.91843,-0.240995 -0.91843,-1.168791 0,-0.54807 -0.16573,-1.134032 -0.36829,-1.302138 -0.61443,-0.509933 -0.66857,-1.302583 -0.13529,-1.980546 0.64675,-0.82221 0.74341,-4.509117 0.12445,-4.746637 -0.20852,-0.08002 -4.13758,1.108018 -8.73125,2.640077 -7.7997,2.601321 -8.35213,2.82668 -8.35213,3.407245 0,0.919788 -0.47839,2.022799 -1.21005,2.789985 l -0.64722,0.678646 0.0687,12.682806 0.0687,12.68283 1.71795,0.0804 c 2.5002,0.11706 2.91226,0.57744 2.91226,3.25376 0,1.90097 -0.0511,2.09155 -0.69714,2.59972 -0.65226,0.51306 -1.03628,0.54837 -5.96515,0.54837 -5.24042,0 -5.27142,-0.003 -5.91745,-0.64944 z"
       id="path4730"
       inkscape:connector-curvature="0" />
    <path
       style="fill:#e68000;fill-opacity:1;stroke-width:0.26458335"
       d="m 141.0328,118.32784 c 2.81795,-0.10316 3.4045,-0.41525 3.4045,-1.81148 0,-1.29398 -0.60508,-1.67388 -2.9285,-1.83867 -1.97618,-0.14015 -2.05448,-0.1709 -2.05448,-0.80716 0,-0.6459 0.0514,-0.6633 2.18281,-0.7383 1.70191,-0.0599 2.18281,-0.16193 2.18281,-0.46302 0,-0.30658 -0.43979,-0.38618 -2.13406,-0.38618 -2.69203,0 -3.1576,0.23067 -3.1576,1.56441 0,1.39378 0.49907,1.71833 2.88356,1.87517 1.93363,0.12719 2.01123,0.15781 2.01123,0.79375 0,0.65244 -0.0335,0.66254 -2.4474,0.73754 -2.26975,0.0705 -2.44739,0.11561 -2.44739,0.62085 0,0.51809 0.12277,0.54029 2.50452,0.45309 z"
       id="path4728"
       inkscape:connector-curvature="0" />
    <path
       style="fill:#e68000;fill-opacity:1;stroke-width:0.26458335"
       d="m 153.05787,118.36844 c 0.27868,0 0.98061,-0.53842 1.55987,-1.19648 l 1.05318,-1.19648 1.07109,1.21683 c 0.74692,0.84854 1.23795,1.19063 1.62236,1.13033 0.49673,-0.0779 0.43277,-0.22158 -0.64658,-1.4521 -0.65882,-0.75109 -1.19785,-1.48799 -1.19785,-1.63756 0,-0.14957 0.49585,-0.84473 1.10189,-1.54481 0.94544,-1.09213 1.03183,-1.28642 0.6084,-1.36862 -0.31635,-0.0614 -0.86902,0.30682 -1.5397,1.02582 l -1.0462,1.12159 -0.90705,-1.09197 c -0.61913,-0.74535 -1.11657,-1.09197 -1.56709,-1.09197 -0.63344,0 -0.61124,0.0558 0.55111,1.38452 0.66613,0.76148 1.21114,1.45317 1.21114,1.53717 0,0.084 -0.53578,0.78033 -1.19062,1.5475 -0.65485,0.76717 -1.19063,1.44464 -1.19063,1.50554 0,0.0609 0.22801,0.11069 0.50668,0.11069 z"
       id="path4722"
       inkscape:connector-curvature="0" />
    <path
       style="fill:#e68000;fill-opacity:1;stroke-width:0.26458335"
       d="m 160.45181,117.86268 c 0.50135,0.40599 1.05222,0.50579 2.79135,0.50579 1.33246,0 2.28898,-0.12225 2.48423,-0.3175 0.33217,-0.33217 0.43342,-2.24756 0.1569,-2.96815 -0.12495,-0.32562 -0.5654,-0.41852 -1.98437,-0.41852 -1.64739,0 -1.82378,0.0512 -1.82378,0.52917 0,0.46506 0.17639,0.52916 1.45521,0.52916 1.44051,0 1.45521,0.008 1.45521,0.79375 v 0.79375 h -2.1278 -2.1278 l 0.0773,-2.05052 0.0773,-2.05052 2.4474,-0.0761 c 1.93649,-0.0602 2.4474,-0.15685 2.4474,-0.46302 0,-0.31345 -0.49658,-0.38695 -2.61344,-0.38695 -3.25189,0 -3.33969,0.0782 -3.33969,2.97446 0,1.8871 0.0632,2.15052 0.62463,2.60517 z"
       id="path3868"
       inkscape:connector-curvature="0" />
  </g>
</svg>
